Coordinates
version=1
nRows=11
nColumns=42
inDegrees=yes

Units are S.I. units (second, meters, Newtons, ...)
If the header above contains a line with 'inDegrees', this indicates whether rotational values are in degrees (yes) or radians (no).

endheader
time	pelvis_tilt	pelvis_list	pelvis_rotation	pelvis_tx	pelvis_ty	pelvis_tz	hip_flexion_r	hip_adduction_r	hip_rotation_r	knee_angle_r	knee_adduction_r	knee_angle_r_beta	ankle_angle_r	subtalar_angle_r	mtp_angle_r	hip_flexion_l	hip_adduction_l	hip_rotation_l	knee_angle_l	knee_adduction_l	knee_angle_l_beta	ankle_angle_l	subtalar_angle_l	mtp_angle_l	lumbar_extension	lumbar_bending	lumbar_rotation	arm_flex_r	arm_add_r	arm_rot_r	elbow_flex_r	pro_sup_r	wrist_flex_r	wrist_dev_r	arm_flex_l	arm_add_l	arm_rot_l	elbow_flex_l	pro_sup_l	wrist_flex_l	wrist_dev_l
      1.04000000	     11.68041694	      3.40838427	      8.59142048	     -1.61783287	      0.91196452	      0.00379267	     11.04920222	    -10.90580181	    -33.74693121	     27.39547272	      1.45471941	      0.47814120	     11.56521281	     35.90545379	     -7.88084997	    -17.18857373	      7.12030102	    -10.13616932	     18.87089880	     -7.11495949	      0.32935932	     22.28485374	     10.53184997	     -7.88084997	    -34.30647255	     -5.70535015	    -11.47100322	    -21.00749329	    -10.76982043	      9.22611219	     36.78078651	     90.00000001	      0.00000000	      0.00000000	     29.66745570	    -12.32796989	      0.00310746	     39.53184859	     90.00000001	      0.00000000	      0.00000000
      1.05000000	     11.51763534	      3.55677136	      8.59845212	     -1.60939051	      0.91088143	      0.00385919	     10.94353865	    -11.03788206	    -34.65858430	     25.74170934	      1.97109417	      0.44927758	     10.94895887	     36.61234325	     -7.87812961	    -17.61679401	      7.26858533	     -9.98513129	     18.89871330	     -7.28928962	      0.32984477	     22.28725777	     10.51339032	     -7.87812961	    -34.00705073	     -5.83334734	    -11.48531736	    -21.21310801	    -10.73003853	      9.08303733	     36.70829173	     90.00000001	      0.00000000	      0.00000000	     29.73325982	    -12.28139490	      0.19851910	     39.16397027	     90.00000001	      0.00000000	      0.00000000
      1.06000000	     11.70300774	      3.42973130	      8.58617753	     -1.60054459	      0.91054820	      0.00428685	     10.24004615	    -10.73263448	    -35.59384373	     23.78593890	      2.66538855	      0.41514295	      9.34581650	     37.31356455	     -7.87129036	    -18.51378823	      6.87765794	     -9.88596983	     18.76781419	     -7.01745330	      0.32756015	     22.23998952	     10.37811997	     -7.87129036	    -34.01913332	     -5.64177342	    -11.25821453	    -21.34663250	    -10.63509659	      8.71213901	     36.59931396	     90.00000001	      0.00000000	      0.00000000	     29.84375597	    -12.16956043	      0.50674420	     38.75466013	     90.00000001	      0.00000000	      0.00000000
      1.07000000	     11.64864876	      3.45996281	      8.60337937	     -1.59182253	      0.90980380	      0.00447506	      9.86454644	    -10.69753551	    -36.34012371	     22.27447332	      3.28155442	      0.38876290	      8.58265068	     37.67179663	     -7.86700218	    -19.11817362	      6.81431417	     -9.77253543	     18.68065123	     -7.05111993	      0.32603887	     22.14497153	     10.41205832	     -7.86700218	    -33.81686604	     -5.59913109	    -11.17620631	    -21.38428310	    -10.59263600	      8.52014281	     36.45503609	     90.00000001	      0.00000000	      0.00000000	     29.87795265	    -12.09059576	      0.69053358	     38.34980470	     90.00000001	      0.00000000	      0.00000000
      1.08000000	     11.82802154	      3.30985624	      8.55482662	     -1.58266108	      0.90953023	      0.00505188	      9.12410616	    -10.31004096	    -36.85708712	     20.64986078	      3.88366381	      0.36040806	      7.41512131	     37.72648343	     -7.85665817	    -20.04626156	      6.43115857	     -9.74467128	     18.46327152	     -6.85941675	      0.32224488	     22.04888857	     10.35910207	     -7.85665817	    -33.79545509	     -5.37992162	    -10.91432886	    -21.39176039	    -10.52348733	      8.16693726	     36.29793300	     90.00000001	      0.00000000	      0.00000000	     29.83021309	    -12.00842643	      0.85512684	     38.00623598	     90.00000001	      0.00000000	      0.00000000
      1.09000000	     11.77778254	      3.28423921	      8.56436155	     -1.57361201	      0.90889277	      0.00537360	      8.74790264	    -10.20568499	    -37.41011001	     19.61947352	      4.32830541	      0.34242441	      6.80885914	     37.95236346	     -7.85281274	    -20.64673098	      6.29416497	     -9.67021032	     18.39851452	     -6.89465778	      0.32111466	     21.85529419	     10.40574562	     -7.85281274	    -33.56580231	     -5.26018429	    -10.81314733	    -21.26113654	    -10.48857432	      8.05110221	     36.04290380	     90.00000001	      0.00000000	      0.00000000	     29.72631168	    -11.95286217	      0.96188590	     37.58371996	     90.00000001	      0.00000000	      0.00000000
      1.10000000	     11.63109081	      3.33635776	      8.37601033	     -1.56453659	      0.90804493	      0.00602352	      8.74012345	    -10.23677270	    -37.70792092	     19.36009052	      4.51076175	      0.33789732	      6.75663199	     37.85513012	     -7.85214537	    -21.09778889	      6.29662930	     -9.69711824	     18.49105246	     -6.88027573	      0.32272975	     21.83570669	     10.39574484	     -7.85214537	    -33.25143496	     -5.31767993	    -10.58686803	    -21.15196377	    -10.52428715	      8.02142729	     36.01486020	     90.00000001	      0.00000000	      0.00000000	     29.48248110	    -11.93435127	      0.97049566	     37.47281484	     90.00000001	      0.00000000	      0.00000000
      1.11000000	     12.04730133	      2.94835061	      8.49276943	     -1.55476925	      0.90850581	      0.00674043	      7.60687589	     -9.46335851	    -37.96385122	     18.10794252	      4.84453149	      0.31604322	      5.39420034	     37.98108398	     -7.84718999	    -22.22422366	      5.46981111	     -9.60504444	     18.38894420	     -6.56485197	      0.32094762	     21.35617990	     10.28584726	     -7.84718999	    -33.42690152	     -4.73409745	    -10.31336869	    -20.78394693	    -10.40000966	      7.73516246	     35.35890166	     90.00000001	      0.00000000	      0.00000000	     29.36039810	    -11.83911219	      1.02577469	     36.95850375	     90.00000001	      0.00000000	      0.00000000
      1.12000000	     12.26076996	      2.69776994	      8.48722429	     -1.54505668	      0.90857916	      0.00754806	      6.94854948	     -8.91568041	    -37.87864001	     17.59380920	      4.91237935	      0.30706990	      4.87102144	     37.83247002	     -7.83888125	    -23.04356244	      4.92945662	     -9.42841963	     18.50345122	     -6.35707908	      0.32294615	     21.08187647	     10.03102595	     -7.83888125	    -33.42233344	     -4.35015539	    -10.04781177	    -20.52492655	    -10.36092513	      7.41927939	     35.25974321	     90.00000001	      0.00000000	      0.00000000	     29.01369575	    -11.79238519	      0.93134487	     36.87678113	     90.00000001	      0.00000000	      0.00000000
      1.13000000	     12.41748471	      2.56970860	      8.45916682	     -1.53530411	      0.90862101	      0.00829695	      6.51158264	     -8.64347352	    -37.74315267	     17.79575347	      4.88048186	      0.31059449	      4.69989785	     37.71746095	     -7.83544769	    -23.67954584	      4.53847652	     -9.36613081	     18.89429969	     -6.24240129	      0.32976774	     20.67821422	      9.91949340	     -7.83544769	    -33.38182273	     -4.09385878	     -9.83876289	    -20.14214908	    -10.33825573	      7.37906320	     34.96428691	     90.00000001	      0.00000000	      0.00000000	     28.63708292	    -11.77993083	      0.88215553	     36.72018458	     90.00000001	      0.00000000	      0.00000000
      1.14000000	     12.65351850	      2.38057083	      8.45388240	     -1.52535639	      0.90897225	      0.00917019	      5.99687088	     -8.21971236	    -37.37979849	     18.10013993	      4.69198526	      0.31590704	      4.53742088	     37.58373456	     -7.83265561	    -24.30860505	      4.01331668	     -9.23264022	     19.46690176	     -6.06577226	      0.33976153	     20.05713092	      9.77813572	     -7.83265561	    -33.41380823	     -3.75854285	     -9.61608511	    -19.68980567	    -10.30005068	      7.31047651	     34.67151476	     90.00000001	      0.00000000	      0.00000000	     28.17997231	    -11.78760237	      0.76614912	     36.64267917	     90.00000001	      0.00000000	      0.00000000
